<svg width="253" height="191" viewBox="0 0 253 191" fill="none" xmlns="http://www.w3.org/2000/svg">
<g filter="url(#filter0_d_447:524)">
<path d="M44.9392 56.8669C46.216 55.59 45.7848 54.99 47.2374 48.6954C48.3571 43.8437 49.5356 56.6115 50.5571 56.867" stroke="#2677B2"/>
<rect x="62.8872" y="96.6071" width="17.7291" height="61.4749" fill="#ECF2F5"/>
<rect x="62.8872" y="99.6809" width="17.7291" height="4.30324" fill="#47A0E1" fill-opacity="0.1"/>
<rect x="62.8872" y="105.828" width="17.7291" height="4.30324" fill="#47A0E1" fill-opacity="0.1"/>
<rect x="62.8872" y="111.976" width="17.7291" height="4.30324" fill="#47A0E1" fill-opacity="0.1"/>
<rect x="62.8872" y="118.123" width="17.7291" height="4.30324" fill="#47A0E1" fill-opacity="0.1"/>
<rect x="62.8872" y="132.877" width="17.7291" height="4.30324" fill="#47A0E1" fill-opacity="0.1"/>
<rect x="62.8872" y="139.025" width="17.7291" height="4.30324" fill="#47A0E1" fill-opacity="0.1"/>
<rect x="62.8872" y="145.172" width="17.7291" height="4.30324" fill="#47A0E1" fill-opacity="0.1"/>
<rect x="62.8872" y="151.32" width="17.7291" height="4.30324" fill="#47A0E1" fill-opacity="0.1"/>
<path d="M70.7357 126.049C71.1088 125.732 71.656 125.732 72.0292 126.049L74.7413 128.348C75.4514 128.95 75.0256 130.111 74.0946 130.111H68.6703C67.7393 130.111 67.3135 128.95 68.0236 128.348L70.7357 126.049Z" fill="#2677B2"/>
<rect x="51.0679" y="158.082" width="41.3679" height="4.91799" fill="#ECF2F5"/>
<rect x="65.3679" y="50.1321" width="13.2786" height="13.2786" fill="#EAA356"/>
<line x1="65.7145" y1="50.2824" x2="78.993" y2="63.0503" stroke="#ECF2F5"/>
<circle cx="82.9874" cy="26.8946" r="2.29821" fill="#2677B2"/>
<circle cx="92.1803" cy="26.8946" r="2.29821" fill="#2677B2"/>
<circle cx="101.373" cy="26.8946" r="2.29821" fill="#2677B2"/>
<circle cx="110.566" cy="26.8946" r="2.29821" fill="#2677B2"/>
<circle cx="177.47" cy="29.9589" r="2.29821" fill="#2677B2"/>
<circle cx="177.47" cy="58.559" r="2.29821" fill="#2677B2"/>
<circle cx="177.47" cy="89.7125" r="2.29821" fill="#2677B2"/>
<circle cx="177.47" cy="123.42" r="2.29821" fill="#2677B2"/>
<circle cx="222.412" cy="58.559" r="2.29821" fill="#2677B2"/>
<circle cx="222.412" cy="89.7125" r="2.29821" fill="#2677B2"/>
<circle cx="222.412" cy="123.42" r="2.29821" fill="#2677B2"/>
<circle cx="222.412" cy="149.977" r="2.29821" fill="#2677B2"/>
<rect width="12.7108" height="1.53214" transform="matrix(-0.707107 -0.707107 -0.707107 0.707107 208.225 159.731)" fill="#ECF2F5"/>
<line x1="71.5071" y1="96.0964" x2="71.5071" y2="63.4107" stroke="#2677B2"/>
<line x1="71.5071" y1="50.1321" x2="71.5071" y2="32.2571" stroke="#2677B2"/>
<line x1="203.782" y1="154.829" x2="203.782" y2="32.7678" stroke="#2677B2"/>
<line x1="116.439" y1="32.7571" x2="72.0071" y2="32.7571" stroke="#2677B2"/>
<line x1="202.239" y1="33.2678" x2="157.807" y2="33.2678" stroke="#2677B2"/>
<line x1="228.796" y1="62.3785" x2="157.807" y2="62.3785" stroke="#2677B2"/>
<line x1="65.3679" y1="57.2714" x2="36.7679" y2="57.2714" stroke="#2677B2"/>
<line x1="228.796" y1="94.5536" x2="157.807" y2="94.5536" stroke="#2677B2"/>
<line x1="228.796" y1="128.261" x2="157.807" y2="128.261" stroke="#2677B2"/>
<line x1="228.796" y1="155.329" x2="203.771" y2="155.329" stroke="#2677B2"/>
<line x1="70.4116" y1="77.9978" x2="71.9437" y2="81.0621" stroke="#2677B2"/>
<line y1="-0.5" x2="3.42598" y2="-0.5" transform="matrix(-0.447214 0.894427 0.894427 0.447214 73.5393 78.2214)" stroke="#2677B2"/>
<line y1="-0.5" x2="3.42598" y2="-0.5" transform="matrix(0.447214 -0.894427 -0.894427 -0.447214 69.9644 92.0107)" stroke="#2677B2"/>
<line x1="73.0921" y1="92.2343" x2="71.56" y2="89.1701" stroke="#2677B2"/>
<line y1="-0.5" x2="3.42598" y2="-0.5" transform="matrix(0.447214 -0.894427 -0.894427 -0.447214 69.9644 41.9607)" stroke="#2677B2"/>
<line x1="73.0921" y1="42.1843" x2="71.56" y2="39.12" stroke="#2677B2"/>
<line y1="-0.5" x2="3.42598" y2="-0.5" transform="matrix(0.91332 0.407243 0.407243 -0.91332 170.064 31.2357)" stroke="#2677B2"/>
<line x1="169.979" y1="34.3704" x2="172.973" y2="32.7043" stroke="#2677B2"/>
<line y1="-0.5" x2="3.42598" y2="-0.5" transform="matrix(0.91332 0.407243 0.407243 -0.91332 170.064 60.3464)" stroke="#2677B2"/>
<line x1="169.979" y1="63.4811" x2="172.973" y2="61.815" stroke="#2677B2"/>
<line y1="-0.5" x2="3.42598" y2="-0.5" transform="matrix(0.91332 0.407243 0.407243 -0.91332 53.1107 55.2393)" stroke="#2677B2"/>
<line x1="53.0256" y1="58.3739" x2="56.0192" y2="56.7078" stroke="#2677B2"/>
<line y1="-0.5" x2="3.42598" y2="-0.5" transform="matrix(0.91332 0.407243 0.407243 -0.91332 170.064 92.5214)" stroke="#2677B2"/>
<line x1="169.979" y1="95.656" x2="172.973" y2="93.9899" stroke="#2677B2"/>
<line y1="-0.5" x2="3.42598" y2="-0.5" transform="matrix(0.91332 0.407243 0.407243 -0.91332 169.554 126.229)" stroke="#2677B2"/>
<line x1="169.469" y1="129.363" x2="172.462" y2="127.697" stroke="#2677B2"/>
<rect x="116.95" y="20" width="40.8571" height="121.039" rx="8" fill="#2677B2"/>
<rect x="66.3082" y="36.9968" width="12.7108" height="1.53214" transform="rotate(-45 66.3082 36.9968)" fill="#ECF2F5"/>
<rect x="196.621" y="55.75" width="13.2786" height="13.2786" fill="#EAA356"/>
<line x1="196.968" y1="55.9003" x2="210.247" y2="68.6682" stroke="#ECF2F5"/>
<rect x="196.621" y="87.925" width="13.2786" height="13.2786" fill="#EAA356"/>
<line x1="196.968" y1="88.0753" x2="210.247" y2="100.843" stroke="#ECF2F5"/>
<rect x="196.621" y="121.121" width="13.2786" height="13.2786" fill="#EAA356"/>
<line x1="196.968" y1="121.272" x2="210.247" y2="134.04" stroke="#ECF2F5"/>
<rect x="65.3679" y="72.0929" width="13.2786" height="1.53214" fill="#ECF2F5"/>
<rect x="196.621" y="111.418" width="13.2786" height="1.53214" fill="#ECF2F5"/>
<rect x="65.3679" y="68.0071" width="13.2786" height="1.53214" fill="#ECF2F5"/>
<rect width="12.7108" height="1.53214" transform="matrix(-0.707107 -0.707107 -0.707107 0.707107 209.246 36.6486)" fill="#ECF2F5"/>
<rect x="188.45" y="25.6179" width="2.04286" height="14.3" fill="#9B9FB0"/>
<rect x="188.45" y="54.7286" width="2.04286" height="14.3" fill="#9B9FB0"/>
<rect x="188.45" y="87.4143" width="2.04286" height="14.3" fill="#9B9FB0"/>
<rect x="188.45" y="121.121" width="2.04286" height="14.3" fill="#9B9FB0"/>
<path d="M29.5078 61.2664C29.5078 61.9891 29.2604 62.5457 28.7656 62.9363C28.2741 63.3237 27.5693 63.5174 26.6514 63.5174H25.8115V66.325H24.9814V59.1863H26.832C28.6159 59.1863 29.5078 59.8797 29.5078 61.2664ZM25.8115 62.8045H26.5586C27.2943 62.8045 27.8265 62.6857 28.1553 62.4481C28.484 62.2104 28.6484 61.8296 28.6484 61.3055C28.6484 60.8335 28.4938 60.4819 28.1846 60.2508C27.8753 60.0197 27.3936 59.9041 26.7393 59.9041H25.8115V62.8045ZM31.6465 60.9734V64.4451C31.6465 64.8813 31.7458 65.2068 31.9443 65.4217C32.1429 65.6365 32.4538 65.744 32.877 65.744C33.4368 65.744 33.8454 65.591 34.1025 65.285C34.363 64.979 34.4932 64.4793 34.4932 63.7859V60.9734H35.3037V66.325H34.6348L34.5176 65.6072H34.4736C34.3076 65.8709 34.0765 66.0727 33.7803 66.2127C33.4873 66.3527 33.152 66.4227 32.7744 66.4227C32.1234 66.4227 31.6351 66.268 31.3096 65.9588C30.9873 65.6496 30.8262 65.1548 30.8262 64.4744V60.9734H31.6465ZM37.8379 66.325H37.0273V58.7274H37.8379V66.325ZM43.0088 64.8651C43.0088 65.3631 42.8232 65.7472 42.4521 66.0174C42.0811 66.2876 41.5602 66.4227 40.8896 66.4227C40.18 66.4227 39.6266 66.3104 39.2295 66.0858V65.3338C39.4867 65.464 39.7617 65.5665 40.0547 65.6414C40.3509 65.7163 40.6357 65.7537 40.9092 65.7537C41.3324 65.7537 41.6579 65.687 41.8857 65.5535C42.1136 65.4168 42.2275 65.2101 42.2275 64.9334C42.2275 64.7251 42.1364 64.5477 41.9541 64.4012C41.7751 64.2514 41.4235 64.0757 40.8994 63.8738C40.4014 63.6883 40.0465 63.5272 39.835 63.3904C39.6266 63.2505 39.4704 63.0926 39.3662 62.9168C39.2653 62.741 39.2148 62.5311 39.2148 62.2869C39.2148 61.8507 39.3923 61.5073 39.7471 61.2567C40.1019 61.0027 40.5885 60.8758 41.207 60.8758C41.7832 60.8758 42.3464 60.993 42.8965 61.2274L42.6084 61.8865C42.0713 61.6652 41.5846 61.5545 41.1484 61.5545C40.7643 61.5545 40.4746 61.6147 40.2793 61.7352C40.084 61.8556 39.9863 62.0216 39.9863 62.2332C39.9863 62.3764 40.0221 62.4985 40.0938 62.5994C40.1686 62.7003 40.2874 62.7964 40.4502 62.8875C40.613 62.9787 40.9255 63.1105 41.3877 63.283C42.0225 63.5141 42.4505 63.7469 42.6719 63.9813C42.8965 64.2156 43.0088 64.5102 43.0088 64.8651ZM46.5928 66.4227C45.8018 66.4227 45.1768 66.1818 44.7178 65.7C44.262 65.2182 44.0342 64.5493 44.0342 63.6932C44.0342 62.8305 44.2458 62.1453 44.6689 61.6375C45.0954 61.1297 45.6667 60.8758 46.3828 60.8758C47.0534 60.8758 47.584 61.0971 47.9746 61.5399C48.3652 61.9793 48.5605 62.5604 48.5605 63.283V63.7957H44.874C44.8903 64.424 45.0482 64.9009 45.3477 65.2264C45.6504 65.5519 46.0752 65.7147 46.6221 65.7147C47.1982 65.7147 47.7679 65.5942 48.3311 65.3533V66.076C48.0446 66.1997 47.7728 66.2876 47.5156 66.3397C47.2617 66.395 46.9541 66.4227 46.5928 66.4227ZM46.373 61.5545C45.9434 61.5545 45.5999 61.6945 45.3428 61.9744C45.0889 62.2544 44.9391 62.6417 44.8936 63.1365H47.6914C47.6914 62.6255 47.5775 62.2348 47.3496 61.9647C47.1217 61.6912 46.7962 61.5545 46.373 61.5545ZM53.3555 66.325H52.5449V58.7274H53.3555V66.325ZM58.3652 66.325L58.2041 65.5633H58.165C57.8981 65.8986 57.6312 66.1264 57.3643 66.2469C57.1006 66.3641 56.7702 66.4227 56.373 66.4227C55.8424 66.4227 55.4258 66.2859 55.123 66.0125C54.8236 65.7391 54.6738 65.3501 54.6738 64.8455C54.6738 63.7648 55.5381 63.1984 57.2666 63.1463L58.1748 63.117V62.785C58.1748 62.3651 58.0837 62.0558 57.9014 61.8572C57.7223 61.6554 57.4342 61.5545 57.0371 61.5545C56.5911 61.5545 56.0866 61.6912 55.5234 61.9647L55.2744 61.3445C55.5381 61.2013 55.8262 61.089 56.1387 61.0076C56.4544 60.9262 56.7702 60.8856 57.0859 60.8856C57.724 60.8856 58.196 61.0272 58.502 61.3104C58.8112 61.5936 58.9658 62.0477 58.9658 62.6727V66.325H58.3652ZM56.5342 65.7537C57.0387 65.7537 57.4342 65.6154 57.7207 65.3387C58.0104 65.062 58.1553 64.6746 58.1553 64.1766V63.6932L57.3447 63.7274C56.7002 63.7501 56.2347 63.8511 55.9482 64.0301C55.665 64.2059 55.5234 64.4809 55.5234 64.8553C55.5234 65.1483 55.6113 65.3712 55.7871 65.5242C55.9661 65.6772 56.2152 65.7537 56.5342 65.7537ZM64.0928 64.8651C64.0928 65.3631 63.9072 65.7472 63.5361 66.0174C63.165 66.2876 62.6442 66.4227 61.9736 66.4227C61.264 66.4227 60.7106 66.3104 60.3135 66.0858V65.3338C60.5706 65.464 60.8457 65.5665 61.1387 65.6414C61.4349 65.7163 61.7197 65.7537 61.9932 65.7537C62.4163 65.7537 62.7419 65.687 62.9697 65.5535C63.1976 65.4168 63.3115 65.2101 63.3115 64.9334C63.3115 64.7251 63.2204 64.5477 63.0381 64.4012C62.859 64.2514 62.5075 64.0757 61.9834 63.8738C61.4854 63.6883 61.1305 63.5272 60.9189 63.3904C60.7106 63.2505 60.5544 63.0926 60.4502 62.9168C60.3493 62.741 60.2988 62.5311 60.2988 62.2869C60.2988 61.8507 60.4762 61.5073 60.8311 61.2567C61.1859 61.0027 61.6725 60.8758 62.291 60.8758C62.8672 60.8758 63.4303 60.993 63.9805 61.2274L63.6924 61.8865C63.1553 61.6652 62.6686 61.5545 62.2324 61.5545C61.8483 61.5545 61.5586 61.6147 61.3633 61.7352C61.168 61.8556 61.0703 62.0216 61.0703 62.2332C61.0703 62.3764 61.1061 62.4985 61.1777 62.5994C61.2526 62.7003 61.3714 62.7964 61.5342 62.8875C61.6969 62.9787 62.0094 63.1105 62.4717 63.283C63.1064 63.5141 63.5345 63.7469 63.7559 63.9813C63.9805 64.2156 64.0928 64.5102 64.0928 64.8651ZM67.6768 66.4227C66.8857 66.4227 66.2607 66.1818 65.8018 65.7C65.346 65.2182 65.1182 64.5493 65.1182 63.6932C65.1182 62.8305 65.3298 62.1453 65.7529 61.6375C66.1794 61.1297 66.7507 60.8758 67.4668 60.8758C68.1374 60.8758 68.668 61.0971 69.0586 61.5399C69.4492 61.9793 69.6445 62.5604 69.6445 63.283V63.7957H65.958C65.9743 64.424 66.1322 64.9009 66.4316 65.2264C66.7344 65.5519 67.1592 65.7147 67.7061 65.7147C68.2822 65.7147 68.8519 65.5942 69.415 65.3533V66.076C69.1286 66.1997 68.8568 66.2876 68.5996 66.3397C68.3457 66.395 68.0381 66.4227 67.6768 66.4227ZM67.457 61.5545C67.0273 61.5545 66.6839 61.6945 66.4268 61.9744C66.1729 62.2544 66.0231 62.6417 65.9775 63.1365H68.7754C68.7754 62.6255 68.6615 62.2348 68.4336 61.9647C68.2057 61.6912 67.8802 61.5545 67.457 61.5545ZM73.4727 60.8758C73.7103 60.8758 73.9235 60.8953 74.1123 60.9344L74 61.6863C73.7786 61.6375 73.5833 61.6131 73.4141 61.6131C72.9811 61.6131 72.61 61.7889 72.3008 62.1404C71.9948 62.492 71.8418 62.9298 71.8418 63.4539V66.325H71.0312V60.9734H71.7002L71.793 61.9647H71.832C72.0306 61.6164 72.2699 61.3478 72.5498 61.159C72.8298 60.9702 73.1374 60.8758 73.4727 60.8758Z" fill="#2677B2"/>
<path d="M92.1777 130.421C92.1777 131.336 91.9938 132.096 91.626 132.701C91.2581 133.307 90.7389 133.717 90.0684 133.932L91.7676 135.699H90.5615L89.1699 134.088L88.9014 134.098C87.8499 134.098 87.0378 133.777 86.4648 133.136C85.8952 132.491 85.6104 131.583 85.6104 130.411C85.6104 129.249 85.8968 128.349 86.4697 127.711C87.0426 127.07 87.8564 126.749 88.9111 126.749C89.9365 126.749 90.7373 127.075 91.3135 127.726C91.8896 128.377 92.1777 129.275 92.1777 130.421ZM86.4893 130.421C86.4893 131.388 86.6943 132.122 87.1045 132.623C87.5179 133.121 88.1169 133.37 88.9014 133.37C89.6924 133.37 90.2897 133.121 90.6934 132.623C91.097 132.125 91.2988 131.391 91.2988 130.421C91.2988 129.461 91.097 128.733 90.6934 128.238C90.293 127.74 89.6989 127.491 88.9111 127.491C88.1201 127.491 87.5179 127.742 87.1045 128.243C86.6943 128.741 86.4893 129.467 86.4893 130.421ZM99.4727 130.362C99.4727 131.541 99.152 132.442 98.5107 133.067C97.8727 133.689 96.9531 134 95.752 134H93.7744V126.861H95.9619C97.0719 126.861 97.9346 127.169 98.5498 127.784C99.165 128.399 99.4727 129.259 99.4727 130.362ZM98.5938 130.392C98.5938 129.461 98.3594 128.759 97.8906 128.287C97.4251 127.815 96.7318 127.579 95.8105 127.579H94.6045V133.282H95.6152C96.6048 133.282 97.3486 133.04 97.8467 132.555C98.3447 132.066 98.5938 131.345 98.5938 130.392Z" fill="#2677B2"/>
<path d="M136.9 43.5509C135.25 43.5509 133.988 43.102 133.113 42.2042C132.242 41.311 131.807 40.0235 131.807 38.3419V35.5734H141.801V38.6359C141.801 40.1899 141.371 41.3976 140.509 42.2589C139.648 43.1202 138.445 43.5509 136.9 43.5509ZM136.859 42.3204C138.162 42.3204 139.144 41.9923 139.805 41.336C140.466 40.6844 140.796 39.7137 140.796 38.4239V36.7355H132.812V38.1505C132.812 39.5359 133.152 40.5773 133.831 41.2745C134.514 41.9718 135.524 42.3204 136.859 42.3204ZM131.67 48.7804C131.67 47.673 132.008 46.798 132.682 46.1554C133.357 45.5174 134.293 45.1984 135.492 45.1984C136.699 45.1984 137.659 45.4946 138.37 46.087C139.081 46.684 139.436 47.4838 139.436 48.4864C139.436 49.4252 139.126 50.1681 138.506 50.715C137.891 51.2618 137.078 51.5353 136.066 51.5353H135.348V46.3741C134.469 46.3969 133.801 46.6179 133.345 47.0372C132.889 47.461 132.662 48.0558 132.662 48.8214C132.662 49.628 132.83 50.4256 133.167 51.214H132.156C131.983 50.8129 131.86 50.4324 131.787 50.0724C131.709 49.7169 131.67 49.2862 131.67 48.7804ZM138.486 48.4728C138.486 47.8712 138.29 47.3904 137.898 47.0304C137.506 46.6749 136.964 46.4653 136.271 46.4015V50.3185C136.986 50.3185 137.533 50.159 137.912 49.84C138.294 49.5209 138.486 49.0652 138.486 48.4728ZM131.807 63.0265H136.681C137.278 63.0265 137.725 62.8989 138.021 62.6437C138.322 62.3885 138.472 61.992 138.472 61.4542C138.472 60.7478 138.269 60.226 137.864 59.8888C137.458 59.5515 136.834 59.3829 135.991 59.3829H131.807V58.2482H136.681C137.278 58.2482 137.725 58.1206 138.021 57.8653C138.322 57.6101 138.472 57.2114 138.472 56.6691C138.472 55.9581 138.258 55.4363 137.83 55.1036C137.406 54.7755 136.708 54.6114 135.738 54.6114H131.807V53.4767H139.299V54.3995L138.274 54.5841V54.6388C138.639 54.853 138.923 55.1538 139.128 55.5411C139.333 55.9331 139.436 56.3706 139.436 56.8536C139.436 58.0249 139.012 58.7905 138.165 59.1505V59.2052C138.556 59.4285 138.866 59.7521 139.094 60.1759C139.322 60.5997 139.436 61.0828 139.436 61.6251C139.436 62.4728 139.217 63.1062 138.78 63.5255C138.347 63.9493 137.652 64.1612 136.695 64.1612H131.807V63.0265ZM139.299 67.5724H134.439C133.828 67.5724 133.373 67.7114 133.072 67.9894C132.771 68.2674 132.621 68.7026 132.621 69.295C132.621 70.0789 132.835 70.6508 133.263 71.0109C133.692 71.3754 134.391 71.5577 135.362 71.5577H139.299V72.6925H131.807V71.756L132.812 71.5919V71.5304C132.443 71.298 132.16 70.9744 131.964 70.5597C131.768 70.1495 131.67 69.6801 131.67 69.1515C131.67 68.24 131.887 67.5564 132.32 67.1007C132.753 66.6495 133.445 66.4239 134.398 66.4239H139.299V67.5724ZM131.807 76.2403V75.1056H142.444V76.2403H131.807ZM132.607 81.0665C132.607 81.267 132.621 81.4607 132.648 81.6476C132.68 81.8344 132.712 81.9825 132.744 82.0919H131.875C131.816 81.9689 131.768 81.7866 131.732 81.545C131.691 81.3081 131.67 81.0939 131.67 80.9025C131.67 79.4532 132.434 78.7286 133.96 78.7286H138.417V77.6554H138.964L139.436 78.7286L141.036 79.2071V79.8634H139.299V82.0372H138.417V79.8634H134.008C133.557 79.8634 133.211 79.9705 132.969 80.1847C132.728 80.3989 132.607 80.6928 132.607 81.0665ZM131.807 84.7306V83.5958H139.299V84.7306H131.807ZM141.33 83.5001C141.589 83.5001 141.778 83.5639 141.897 83.6915C142.02 83.8191 142.082 83.9786 142.082 84.17C142.082 84.3523 142.02 84.5096 141.897 84.6417C141.774 84.7739 141.585 84.84 141.33 84.84C141.074 84.84 140.883 84.7739 140.755 84.6417C140.632 84.5096 140.571 84.3523 140.571 84.17C140.571 83.9786 140.632 83.8191 140.755 83.6915C140.883 83.5639 141.074 83.5001 141.33 83.5001ZM131.67 90.6232C131.67 90.1355 131.759 89.6889 131.937 89.2833C132.119 88.8823 132.397 88.545 132.771 88.2716V88.1896C132.333 88.2442 131.919 88.2716 131.527 88.2716H128.444V87.1368H139.299V88.0597L138.274 88.2169V88.2716C138.684 88.5633 138.98 88.9028 139.163 89.2901C139.345 89.6775 139.436 90.1219 139.436 90.6232C139.436 91.6166 139.097 92.3823 138.417 92.92C137.738 93.4623 136.786 93.7335 135.56 93.7335C134.33 93.7335 133.373 93.4578 132.689 92.9064C132.01 92.3595 131.67 91.5984 131.67 90.6232ZM138.472 90.4591C138.472 89.6935 138.26 89.1398 137.836 88.798C137.413 88.4562 136.738 88.2807 135.813 88.2716H135.56C134.507 88.2716 133.753 88.447 133.297 88.798C132.846 89.1489 132.621 89.7117 132.621 90.4864C132.621 91.1336 132.883 91.6394 133.407 92.004C133.931 92.3732 134.653 92.5577 135.574 92.5577C136.508 92.5577 137.223 92.3732 137.72 92.004C138.222 91.6394 138.472 91.1245 138.472 90.4591ZM131.807 96.8575V95.7228H142.444V96.8575H131.807ZM131.67 102.429C131.67 101.321 132.008 100.446 132.682 99.8038C133.357 99.1658 134.293 98.8468 135.492 98.8468C136.699 98.8468 137.659 99.143 138.37 99.7355C139.081 100.332 139.436 101.132 139.436 102.135C139.436 103.074 139.126 103.817 138.506 104.363C137.891 104.91 137.078 105.184 136.066 105.184H135.348V100.023C134.469 100.045 133.801 100.266 133.345 100.686C132.889 101.109 132.662 101.704 132.662 102.47C132.662 103.276 132.83 104.074 133.167 104.862H132.156C131.983 104.461 131.86 104.081 131.787 103.721C131.709 103.365 131.67 102.935 131.67 102.429ZM138.486 102.121C138.486 101.52 138.29 101.039 137.898 100.679C137.506 100.323 136.964 100.114 136.271 100.05V103.967C136.986 103.967 137.533 103.807 137.912 103.488C138.294 103.169 138.486 102.714 138.486 102.121ZM135.642 108.93L139.299 106.325V107.617L136.428 109.593L139.299 111.562V112.84L135.642 110.235L131.807 112.977V111.692L134.842 109.593L131.807 107.474V106.189L135.642 108.93ZM131.67 117.632C131.67 116.525 132.008 115.65 132.682 115.007C133.357 114.369 134.293 114.05 135.492 114.05C136.699 114.05 137.659 114.346 138.37 114.939C139.081 115.536 139.436 116.335 139.436 117.338C139.436 118.277 139.126 119.02 138.506 119.567C137.891 120.113 137.078 120.387 136.066 120.387H135.348V115.226C134.469 115.248 133.801 115.47 133.345 115.889C132.889 116.313 132.662 116.907 132.662 117.673C132.662 118.48 132.83 119.277 133.167 120.066H132.156C131.983 119.664 131.86 119.284 131.787 118.924C131.709 118.568 131.67 118.138 131.67 117.632ZM138.486 117.324C138.486 116.723 138.29 116.242 137.898 115.882C137.506 115.526 136.964 115.317 136.271 115.253V119.17C136.986 119.17 137.533 119.011 137.912 118.692C138.294 118.373 138.486 117.917 138.486 117.324ZM139.436 125.746C139.436 126.079 139.409 126.377 139.354 126.642L138.301 126.484C138.37 126.175 138.404 125.901 138.404 125.664C138.404 125.058 138.158 124.539 137.666 124.106C137.173 123.677 136.56 123.463 135.827 123.463H131.807V122.328H139.299V123.265L137.912 123.395V123.449C138.399 123.727 138.775 124.062 139.04 124.454C139.304 124.846 139.436 125.277 139.436 125.746Z" fill="#ECF2F5"/>
</g>
<defs>
<filter id="filter0_d_447:524" x="0.981445" y="0" width="251.815" height="191" filterUnits="userSpaceOnUse" color-interpolation-filters="sRGB">
<feFlood flood-opacity="0" result="BackgroundImageFix"/>
<feColorMatrix in="SourceAlpha" type="matrix" values="0 0 0 0 0 0 0 0 0 0 0 0 0 0 0 0 0 0 127 0" result="hardAlpha"/>
<feOffset dy="4"/>
<feGaussianBlur stdDeviation="12"/>
<feComposite in2="hardAlpha" operator="out"/>
<feColorMatrix type="matrix" values="0 0 0 0 0.780938 0 0 0 0 0.781181 0 0 0 0 0.7875 0 0 0 0.7 0"/>
<feBlend mode="normal" in2="BackgroundImageFix" result="effect1_dropShadow_447:524"/>
<feBlend mode="normal" in="SourceGraphic" in2="effect1_dropShadow_447:524" result="shape"/>
</filter>
</defs>
</svg>
